<?xml version="1.0" encoding="iso-8859-1"?>
<!-- Generator: Adobe Illustrator 19.0.0, SVG Export Plug-In . SVG Version: 6.00 Build 0)  -->
<svg version="1.1" id="Capa_1" xmlns="http://www.w3.org/2000/svg" xmlns:xlink="http://www.w3.org/1999/xlink" x="0px" y="0px"
	 viewBox="0 0 512.001 512.001" style="enable-background:new 0 0 512.001 512.001;" xml:space="preserve">
<g transform="matrix(1.25 0 0 -1.25 0 45)">
	<g>
		<path style="fill:#DD2E44;" d="M76.438-115.67c47.582-6.202,81.442,27.645,75.239,75.228l-4.66,35.681
			c-6.202,47.594-65.721,50.21-72.974,24.819L63.134-27.139L15.938-38.036c-25.391-7.253-22.763-66.772,24.831-72.974L76.438-115.67
			z"/>
		<path style="fill:#DD2E44;" d="M368.842-226.575l-35.681,4.649c-47.582,6.213-81.43-27.645-75.228-75.228l4.649-35.681
			c6.213-47.582,65.733-50.222,72.974-24.831l10.908,47.209l47.197,10.897C419.053-292.319,416.425-232.777,368.842-226.575z"/>
	</g>
	<g>
		<path style="fill:#BE1931;" d="M347.861-223.843l-14.699,1.919c-3.784,0.49-7.475,0.736-11.072,0.736
			c-41.638,0-69.867-32.165-64.156-75.963l1.022-7.843c18.935,3.138,40.295,14.49,58.552,32.747
			C332.569-257.191,342.931-240.021,347.861-223.843z"/>
		<path style="fill:#BE1931;" d="M72.297-115.133l4.149-0.542c47.571-6.202,81.43,27.645,75.228,75.239l-1.39,10.641
			c-15.388-5.22-31.507-15.254-45.742-29.487C87.148-76.674,76.024-96.885,72.297-115.133z"/>
	</g>
	<path style="fill:#DD2E44;" d="M123.053-77.792c-48.575-48.587-48.575-127.353,0-175.929c48.587-48.587,127.353-48.587,175.929,0
		c48.587,48.575,48.587,127.342,0,175.929C250.408-29.217,171.641-29.217,123.053-77.792z"/>
	<g>
		<g>
			<path style="fill:#F5F8FA;" d="M210.205-162.48c-30.734-18.621-74.867-28.458-106.926-19.11
				c2.678-18.383,10.05-36.205,22.11-51.515C153.636-225.285,186.132-204.328,210.205-162.48z"/>
			<path style="fill:#F5F8FA;" d="M211.024-162.46c0.051-0.006,0.1-0.015,0.151-0.021c-0.076,0.04-0.149,0.083-0.225,0.123
				c-0.088,0.12-0.171,0.241-0.259,0.362c0.01-0.077,0.018-0.157,0.028-0.234c-33.399,17.892-54.165,60.974-43.535,96.263
				c-12.227-5.374-23.472-13.031-33.199-22.757c-6.454-6.456-11.921-13.529-16.413-21.027c14.617-23.525,43.686-46.371,93.171-52.67
				c4.496-35.022-7.952-80.335-31.683-107.538c10.226-3.123,20.971-4.743,31.966-4.743c8.351,0,16.557,0.938,24.501,2.756
				C242.764-241.559,239.754-201.667,211.024-162.46z"/>
			<path style="fill:#F5F8FA;" d="M210.69-161.995c40.735-7.595,74.466-39.824,79.705-78.372
				c16.04,17.035,25.999,38.362,28.772,61.334C297.63-155.959,261.458-138.99,210.69-161.995z"/>
			<path style="fill:#F5F8FA;" d="M210.69-161.995c12.513,27.066,54.403,51.752,94.014,51.922
				c-4.587,7.686-10.158,14.857-16.652,21.351c-8.634,8.634-18.467,15.633-29.117,20.857
				C230.239-81.983,204.394-110.364,210.69-161.995z"/>
		</g>
		<path style="fill:#DD2E44;" d="M211.018-41.37c-31.839,0-63.677-12.135-87.97-36.417l0,0c-48.575-48.599-48.575-127.365,0-175.94
			c48.599-48.575,127.365-48.575,175.94,0s48.575,127.342,0,175.94C274.694-53.504,242.855-41.37,211.018-41.37z M290.395-240.367
			c-0.769-0.817-1.548-1.627-2.345-2.424c-14.669-14.672-32.788-24.64-52.527-29.156c-7.945-1.817-16.15-2.756-24.501-2.756
			c-10.994,0-21.739,1.621-31.966,4.743c-16.839,5.143-32.269,14.365-45.073,27.17c-3.092,3.093-5.953,6.33-8.596,9.685
			c-12.059,15.311-19.433,33.132-22.11,51.515c-3.568,24.498,1.199,49.985,14.291,71.839c4.492,7.499,9.959,14.572,16.413,21.027
			c9.728,9.726,20.973,17.383,33.199,22.757c13.638,5.994,28.496,9.148,43.84,9.148c16.887,0,33.184-3.823,47.912-11.047
			c10.651-5.224,20.483-12.223,29.117-20.857c6.494-6.494,12.065-13.665,16.652-21.351c9.949-16.67,15.261-35.77,15.261-55.687
			c0-4.472-0.271-8.902-0.798-13.273C316.394-202.005,306.435-223.333,290.395-240.367z"/>
	</g>
</g>
<g>
</g>
<g>
</g>
<g>
</g>
<g>
</g>
<g>
</g>
<g>
</g>
<g>
</g>
<g>
</g>
<g>
</g>
<g>
</g>
<g>
</g>
<g>
</g>
<g>
</g>
<g>
</g>
<g>
</g>
</svg>
